<?xml version="1.0" encoding="UTF-8"?>
<svg height="16px" viewBox="0 0 16 16" width="16px" xmlns="http://www.w3.org/2000/svg">
    <path d="m 8 1 c 3.867188 0 7 3.132812 7 7 s -3.132812 7 -7 7 s -7 -3.132812 -7 -7 s 3.132812 -7 7 -7 z m 0 0" fill="none" stroke="#241f31" stroke-width="2"/>
    <g fill="#241f31">
        <path d="m 7.898438 12.578125 c -0.699219 0 -1.304688 -0.113281 -1.820313 -0.34375 c -0.515625 -0.234375 -0.914063 -0.550781 -1.199219 -0.957031 c -0.28125 -0.40625 -0.429687 -0.867188 -0.4375 -1.390625 h 2.308594 c 0.011719 0.246093 0.125 0.449219 0.339844 0.605469 c 0.222656 0.15625 0.488281 0.234374 0.808594 0.234374 c 0.328124 0 0.589843 -0.089843 0.777343 -0.273437 c 0.195313 -0.179687 0.289063 -0.429687 0.289063 -0.75 c 0 -0.28125 -0.113282 -0.519531 -0.339844 -0.714844 c -0.222656 -0.199219 -0.511719 -0.296875 -0.863281 -0.296875 h -1.113281 v -1.410156 l 1.714843 -1.394531 v -0.046875 h -3.488281 v -1.839844 h 6.171875 v 1.65625 l -2.214844 1.800781 c 0.511719 0.011719 0.960938 0.128907 1.34375 0.34375 c 0.386719 0.214844 0.6875 0.503907 0.898438 0.867188 c 0.214843 0.359375 0.324219 0.769531 0.324219 1.230469 c 0 0.554687 -0.15625 1.035156 -0.464844 1.4375 c -0.308594 0.394531 -0.726563 0.703124 -1.257813 0.917968 c -0.527343 0.21875 -1.117187 0.324219 -1.777343 0.324219 z m 0 0"/>
        <path d="m 0 5 v 3 c 1.332031 -4 4 -6.667969 8 -8 h -3 c -2.761719 0 -5 2.238281 -5 5 z m 8 -5 c 4 1.332031 6.667969 4 8 8 v -3 c 0 -2.761719 -2.238281 -5 -5 -5 z m 8 8 c -1.332031 4 -4 6.667969 -8 8 h 3 c 2.761719 0 5 -2.238281 5 -5 z m -8 8 c -4 -1.332031 -6.667969 -4 -8 -8 v 3 c 0 2.761719 2.238281 5 5 5 z m 0 0"/>
    </g>
</svg>
