<?xml version="1.0" encoding="UTF-8"?>
<svg height="128px" viewBox="0 0 128 128" width="128px" xmlns="http://www.w3.org/2000/svg" xmlns:xlink="http://www.w3.org/1999/xlink">
    <defs>
        <filter id="a" height="100%" width="100%" x="0%" y="0%">
            <feColorMatrix color-interpolation-filters="sRGB" values="0 0 0 0 1 0 0 0 0 1 0 0 0 0 1 0 0 0 1 0"/>
        </filter>
        <clipPath id="b">
            <path d="m 12 12 h 104 v 104 h -104 z m 0 0"/>
        </clipPath>
        <clipPath id="c">
            <path d="m 108 12 h -88 c -4.417969 0 -8 3.582031 -8 8 v 88 c 0 4.417969 3.582031 8 8 8 h 88 c 4.417969 0 8 -3.582031 8 -8 v -88 c 0 -4.417969 -3.582031 -8 -8 -8 z m 0 0"/>
        </clipPath>
        <linearGradient id="d" gradientTransform="matrix(-1.238095 0 0 1.181818 -134.095184 -54.181808)" gradientUnits="userSpaceOnUse" x1="-121.230743" x2="-121.230743" y1="59.384613" y2="140.615387">
            <stop offset="0" stop-color="#d1d0d0"/>
            <stop offset="0.41413" stop-color="#c0bfbc"/>
            <stop offset="0.795924" stop-color="#c0bfbc"/>
            <stop offset="1" stop-color="#9a9996"/>
        </linearGradient>
        <mask id="e">
            <g filter="url(#a)">
                <rect fill-opacity="0.361567" height="153.6" width="153.6" x="-12.8" y="-12.8"/>
            </g>
        </mask>
        <clipPath id="f">
            <path d="m 85 12 h 31 v 26 h -31 z m 0 0"/>
        </clipPath>
        <clipPath id="g">
            <path d="m 108 12 h -88 c -4.417969 0 -8 3.582031 -8 8 v 88 c 0 4.417969 3.582031 8 8 8 h 88 c 4.417969 0 8 -3.582031 8 -8 v -88 c 0 -4.417969 -3.582031 -8 -8 -8 z m 0 0"/>
        </clipPath>
        <linearGradient id="h" gradientUnits="userSpaceOnUse">
            <stop offset="0" stop-color="#deddda" stop-opacity="0"/>
            <stop offset="0.512791" stop-color="#deddda"/>
            <stop offset="1" stop-color="#deddda" stop-opacity="0"/>
        </linearGradient>
        <linearGradient id="i" x1="104.353554" x2="113.800751" xlink:href="#h" y1="14.717514" y2="26.061951"/>
        <clipPath id="j">
            <path d="m 12 12 h 30 v 20 h -30 z m 0 0"/>
        </clipPath>
        <clipPath id="k">
            <path d="m 108 12 h -88 c -4.417969 0 -8 3.582031 -8 8 v 88 c 0 4.417969 3.582031 8 8 8 h 88 c 4.417969 0 8 -3.582031 8 -8 v -88 c 0 -4.417969 -3.582031 -8 -8 -8 z m 0 0"/>
        </clipPath>
        <linearGradient id="l" gradientTransform="matrix(-1 0 0 1 126.460739 -178)" x1="104.353554" x2="113.800751" xlink:href="#h" y1="186.717514" y2="198.061951"/>
        <clipPath id="m">
            <path d="m 23 20 h 82 v 77 h -82 z m 0 0"/>
        </clipPath>
        <clipPath id="n">
            <path d="m 108 12 h -88 c -4.417969 0 -8 3.582031 -8 8 v 88 c 0 4.417969 3.582031 8 8 8 h 88 c 4.417969 0 8 -3.582031 8 -8 v -88 c 0 -4.417969 -3.582031 -8 -8 -8 z m 0 0"/>
        </clipPath>
        <radialGradient id="o" cx="22.940233" cy="33.657738" gradientTransform="matrix(5.897784 0.0743601 -0.0808026 6.408765 -77.776802 -117.414425)" gradientUnits="userSpaceOnUse" r="15.095438">
            <stop offset="0" stop-color="#f6f5f2"/>
            <stop offset="1" stop-color="#c8c7c4"/>
        </radialGradient>
        <clipPath id="p">
            <path d="m 12 12 h 104 v 104 h -104 z m 0 0"/>
        </clipPath>
        <clipPath id="q">
            <path d="m 108 12 h -88 c -4.417969 0 -8 3.582031 -8 8 v 88 c 0 4.417969 3.582031 8 8 8 h 88 c 4.417969 0 8 -3.582031 8 -8 v -88 c 0 -4.417969 -3.582031 -8 -8 -8 z m 0 0"/>
        </clipPath>
        <mask id="r">
            <g filter="url(#a)">
                <rect fill-opacity="0.361567" height="153.6" width="153.6" x="-12.8" y="-12.8"/>
            </g>
        </mask>
        <clipPath id="s">
            <path d="m 52 50 h 8 v 32 h -8 z m 0 0"/>
        </clipPath>
        <clipPath id="t">
            <path d="m 108 12 h -88 c -4.417969 0 -8 3.582031 -8 8 v 88 c 0 4.417969 3.582031 8 8 8 h 88 c 4.417969 0 8 -3.582031 8 -8 v -88 c 0 -4.417969 -3.582031 -8 -8 -8 z m 0 0"/>
        </clipPath>
        <clipPath id="u">
            <path d="m 40 62 h 32 v 8 h -32 z m 0 0"/>
        </clipPath>
        <clipPath id="v">
            <path d="m 108 12 h -88 c -4.417969 0 -8 3.582031 -8 8 v 88 c 0 4.417969 3.582031 8 8 8 h 88 c 4.417969 0 8 -3.582031 8 -8 v -88 c 0 -4.417969 -3.582031 -8 -8 -8 z m 0 0"/>
        </clipPath>
        <clipPath id="w">
            <path d="m 12 12 h 104 v 104 h -104 z m 0 0"/>
        </clipPath>
        <clipPath id="x">
            <path d="m 108 12 h -88 c -4.417969 0 -8 3.582031 -8 8 v 88 c 0 4.417969 3.582031 8 8 8 h 88 c 4.417969 0 8 -3.582031 8 -8 v -88 c 0 -4.417969 -3.582031 -8 -8 -8 z m 0 0"/>
        </clipPath>
        <mask id="y">
            <g filter="url(#a)">
                <rect fill-opacity="0.361567" height="221.184" width="221.184" x="-46.592" y="-46.592"/>
            </g>
        </mask>
        <linearGradient id="z" gradientTransform="matrix(0.974399 0.224826 0.224826 -0.974399 -35.323494 282.032745)" x1="104.353554" x2="113.800751" xlink:href="#h" y1="186.717514" y2="198.061951"/>
        <clipPath id="A">
            <rect height="152" width="192"/>
        </clipPath>
        <g id="B" clip-path="url(#A)">
            <path d="m 110.679688 147.410156 l -16.28125 -48.144531 l 7.972656 -0.640625 l 43.078125 36.667969 z m 0 0" fill="url(#z)"/>
        </g>
        <clipPath id="C">
            <path d="m 85 12 h 31 v 26 h -31 z m 0 0"/>
        </clipPath>
        <clipPath id="D">
            <path d="m 108 12 h -88 c -4.417969 0 -8 3.582031 -8 8 v 88 c 0 4.417969 3.582031 8 8 8 h 88 c 4.417969 0 8 -3.582031 8 -8 v -88 c 0 -4.417969 -3.582031 -8 -8 -8 z m 0 0"/>
        </clipPath>
        <clipPath id="E">
            <path d="m 12 12 h 30 v 20 h -30 z m 0 0"/>
        </clipPath>
        <clipPath id="F">
            <path d="m 108 12 h -88 c -4.417969 0 -8 3.582031 -8 8 v 88 c 0 4.417969 3.582031 8 8 8 h 88 c 4.417969 0 8 -3.582031 8 -8 v -88 c 0 -4.417969 -3.582031 -8 -8 -8 z m 0 0"/>
        </clipPath>
        <clipPath id="G">
            <path d="m 23 20 h 82 v 77 h -82 z m 0 0"/>
        </clipPath>
        <clipPath id="H">
            <path d="m 108 12 h -88 c -4.417969 0 -8 3.582031 -8 8 v 88 c 0 4.417969 3.582031 8 8 8 h 88 c 4.417969 0 8 -3.582031 8 -8 v -88 c 0 -4.417969 -3.582031 -8 -8 -8 z m 0 0"/>
        </clipPath>
        <clipPath id="I">
            <path d="m 12 12 h 104 v 104 h -104 z m 0 0"/>
        </clipPath>
        <clipPath id="J">
            <path d="m 108 12 h -88 c -4.417969 0 -8 3.582031 -8 8 v 88 c 0 4.417969 3.582031 8 8 8 h 88 c 4.417969 0 8 -3.582031 8 -8 v -88 c 0 -4.417969 -3.582031 -8 -8 -8 z m 0 0"/>
        </clipPath>
        <mask id="K">
            <g filter="url(#a)">
                <rect fill-opacity="0.361567" height="221.184" width="221.184" x="-46.592" y="-46.592"/>
            </g>
        </mask>
        <clipPath id="L">
            <path d="m 0 100 h 48 v 49 h -48 z m 0 0"/>
        </clipPath>
        <linearGradient id="M" gradientTransform="matrix(-0.98108 0.193605 -0.193605 -0.98108 170.946442 287.907951)" x1="104.353554" x2="113.800751" xlink:href="#h" y1="186.717514" y2="198.061951"/>
        <clipPath id="N">
            <rect height="152" width="192"/>
        </clipPath>
        <g id="O" clip-path="url(#N)">
            <g clip-path="url(#L)">
                <path d="m 29.3125 148.695312 l 17.8125 -47.601562 l -7.949219 -0.894531 l -44.222656 35.273437 z m 0 0" fill="url(#M)"/>
            </g>
        </g>
        <clipPath id="P">
            <path d="m 52 50 h 8 v 32 h -8 z m 0 0"/>
        </clipPath>
        <clipPath id="Q">
            <path d="m 108 12 h -88 c -4.417969 0 -8 3.582031 -8 8 v 88 c 0 4.417969 3.582031 8 8 8 h 88 c 4.417969 0 8 -3.582031 8 -8 v -88 c 0 -4.417969 -3.582031 -8 -8 -8 z m 0 0"/>
        </clipPath>
        <clipPath id="R">
            <path d="m 40 62 h 32 v 8 h -32 z m 0 0"/>
        </clipPath>
        <clipPath id="S">
            <path d="m 108 12 h -88 c -4.417969 0 -8 3.582031 -8 8 v 88 c 0 4.417969 3.582031 8 8 8 h 88 c 4.417969 0 8 -3.582031 8 -8 v -88 c 0 -4.417969 -3.582031 -8 -8 -8 z m 0 0"/>
        </clipPath>
        <clipPath id="T">
            <path d="m 72 0 h 56 v 56 h -56 z m 0 0"/>
        </clipPath>
        <clipPath id="U">
            <rect height="128" width="128"/>
        </clipPath>
        <clipPath id="V">
            <rect height="128" width="128"/>
        </clipPath>
        <mask id="W">
            <g filter="url(#a)">
                <g clip-path="url(#V)" filter="url(#a)">
                    <g clip-path="url(#U)">
                        <path d="m 108 14 h -88 c -4.417969 0 -8 3.582031 -8 8 v 88 c 0 4.417969 3.582031 8 8 8 h 88 c 4.417969 0 8 -3.582031 8 -8 v -88 c 0 -4.417969 -3.582031 -8 -8 -8 z m 0 0" fill="#77767b"/>
                        <g clip-path="url(#w)">
                            <g clip-path="url(#x)">
                                <path d="m 116 12 h -104 v 104 h 104 z m 0 0" fill="url(#d)"/>
                                <path d="m 108 12 h -88 c -4.417969 0 -8 3.582031 -8 8 v 88 c 0 4.417969 3.582031 8 8 8 h 88 c 4.417969 0 8 -3.582031 8 -8 v -88 c 0 -4.417969 -3.582031 -8 -8 -8 z m 0 0" fill="url(#d)"/>
                                <g mask="url(#y)">
                                    <use transform="matrix(1 0 0 1 -8 -16)" xlink:href="#B"/>
                                </g>
                            </g>
                        </g>
                        <g clip-path="url(#C)">
                            <g clip-path="url(#D)">
                                <path d="m 112 -8 l -26.691406 43.253906 l 7.625 2.414063 l 50.21875 -26.042969 z m 0 0" fill="url(#i)"/>
                            </g>
                        </g>
                        <g clip-path="url(#E)">
                            <g clip-path="url(#F)">
                                <path d="m 14.460938 -14 l 26.691406 43.253906 l -7.625 2.414063 l -50.21875 -26.042969 z m 0 0" fill="url(#l)"/>
                            </g>
                        </g>
                        <g clip-path="url(#G)">
                            <g clip-path="url(#H)">
                                <path d="m 35.953125 20.644531 h 56.09375 c 6.738281 0 12.203125 5.464844 12.203125 12.207031 v 51.492188 c 0 6.738281 -5.464844 12.203125 -12.203125 12.203125 h -56.09375 c -6.738281 0 -12.203125 -5.464844 -12.203125 -12.203125 v -51.492188 c 0 -6.742187 5.464844 -12.207031 12.203125 -12.207031 z m 0 0" fill="url(#o)"/>
                            </g>
                        </g>
                        <g clip-path="url(#I)">
                            <g clip-path="url(#J)">
                                <g mask="url(#K)">
                                    <use transform="matrix(1 0 0 1 -8 -16)" xlink:href="#O"/>
                                </g>
                            </g>
                        </g>
                        <g clip-path="url(#P)">
                            <g clip-path="url(#Q)">
                                <path d="m 56 50 c 2.128906 0 3.851562 1.726562 3.851562 3.851562 v 24.296876 c 0 2.125 -1.722656 3.851562 -3.851562 3.851562 s -3.851562 -1.726562 -3.851562 -3.851562 v -24.296876 c 0 -2.125 1.722656 -3.851562 3.851562 -3.851562 z m 0 0" fill="#77767b"/>
                            </g>
                        </g>
                        <g clip-path="url(#R)">
                            <g clip-path="url(#S)">
                                <path d="m 72 66 c 0 2.128906 -1.726562 3.851562 -3.851562 3.851562 h -24.296876 c -2.125 0 -3.851562 -1.722656 -3.851562 -3.851562 s 1.726562 -3.851562 3.851562 -3.851562 h 24.296876 c 2.125 0 3.851562 1.722656 3.851562 3.851562 z m 0 0" fill="#77767b"/>
                            </g>
                        </g>
                        <g clip-path="url(#T)">
                            <path d="m 100 -0.125 c 15.464844 0 28 12.535156 28 28 c 0 15.460938 -12.535156 28 -28 28 s -28 -12.539062 -28 -28 c 0 -15.464844 12.535156 -28 28 -28 z m 0 0" fill="#3584e4"/>
                        </g>
                        <path d="m 99.90625 45.335938 c -2.835938 0 -5.304688 -0.46875 -7.402344 -1.410157 c -2.097656 -0.941406 -3.722656 -2.234375 -4.878906 -3.886719 c -1.15625 -1.648437 -1.75 -3.539062 -1.78125 -5.664062 h 9.390625 c 0.046875 1 0.507813 1.824219 1.386719 2.472656 c 0.894531 0.632813 1.992187 0.949219 3.285156 0.949219 c 1.34375 0 2.398438 -0.371094 3.171875 -1.109375 c 0.785156 -0.742188 1.179687 -1.757812 1.179687 -3.054688 c 0 -1.140624 -0.464843 -2.113281 -1.390624 -2.914062 c -0.910157 -0.800781 -2.082032 -1.203125 -3.515626 -1.203125 h -4.53125 v -5.738281 l 6.984376 -5.6875 v -0.1875 h -14.203126 v -7.492188 h 25.121094 v 6.753906 l -9.023437 7.332032 c 2.097656 0.046875 3.925781 0.507812 5.484375 1.386718 c 1.574218 0.878907 2.789062 2.058594 3.65625 3.539063 c 0.878906 1.464844 1.316406 3.132813 1.316406 4.996094 c 0 2.269531 -0.632812 4.21875 -1.894531 5.855469 c -1.25 1.617187 -2.953125 2.867187 -5.113281 3.746093 c -2.144532 0.878907 -4.558594 1.316407 -7.242188 1.316407 z m 0 0" fill="#ffffff"/>
                    </g>
                </g>
            </g>
        </mask>
        <mask id="X">
            <g filter="url(#a)">
                <rect fill-opacity="0.8" height="184.32" width="184.32" x="-28.16" y="-28.16"/>
            </g>
        </mask>
        <linearGradient id="Y" gradientTransform="matrix(0 0.37 -0.98462 0 295.38501 -30.360001)" gradientUnits="userSpaceOnUse" x1="300" x2="428" y1="235" y2="235">
            <stop offset="0" stop-color="#f9f06b"/>
            <stop offset="1" stop-color="#f5c211"/>
        </linearGradient>
        <clipPath id="Z">
            <rect height="128" width="128"/>
        </clipPath>
        <clipPath id="aa">
            <rect height="128" width="128"/>
        </clipPath>
    </defs>
    <path d="m 108 14 h -88 c -4.417969 0 -8 3.582031 -8 8 v 88 c 0 4.417969 3.582031 8 8 8 h 88 c 4.417969 0 8 -3.582031 8 -8 v -88 c 0 -4.417969 -3.582031 -8 -8 -8 z m 0 0" fill="#77767b"/>
    <g clip-path="url(#b)">
        <g clip-path="url(#c)">
            <path d="m 116 12 h -104 v 104 h 104 z m 0 0" fill="url(#d)"/>
            <path d="m 108 12 h -88 c -4.417969 0 -8 3.582031 -8 8 v 88 c 0 4.417969 3.582031 8 8 8 h 88 c 4.417969 0 8 -3.582031 8 -8 v -88 c 0 -4.417969 -3.582031 -8 -8 -8 z m 0 0" fill="url(#d)"/>
            <g mask="url(#e)">
                <use transform="matrix(1 0 0 1 -8 -16)" xlink:href="#B"/>
            </g>
        </g>
    </g>
    <g clip-path="url(#f)">
        <g clip-path="url(#g)">
            <path d="m 112 -8 l -26.691406 43.253906 l 7.625 2.414063 l 50.21875 -26.042969 z m 0 0" fill="url(#i)"/>
        </g>
    </g>
    <g clip-path="url(#j)">
        <g clip-path="url(#k)">
            <path d="m 14.460938 -14 l 26.691406 43.253906 l -7.625 2.414063 l -50.21875 -26.042969 z m 0 0" fill="url(#l)"/>
        </g>
    </g>
    <g clip-path="url(#m)">
        <g clip-path="url(#n)">
            <path d="m 35.953125 20.644531 h 56.09375 c 6.738281 0 12.203125 5.464844 12.203125 12.207031 v 51.492188 c 0 6.738281 -5.464844 12.203125 -12.203125 12.203125 h -56.09375 c -6.738281 0 -12.203125 -5.464844 -12.203125 -12.203125 v -51.492188 c 0 -6.742187 5.464844 -12.207031 12.203125 -12.207031 z m 0 0" fill="url(#o)"/>
        </g>
    </g>
    <g clip-path="url(#p)">
        <g clip-path="url(#q)">
            <g mask="url(#r)">
                <use transform="matrix(1 0 0 1 -8 -16)" xlink:href="#O"/>
            </g>
        </g>
    </g>
    <g clip-path="url(#s)">
        <g clip-path="url(#t)">
            <path d="m 56 50 c 2.128906 0 3.851562 1.726562 3.851562 3.851562 v 24.296876 c 0 2.125 -1.722656 3.851562 -3.851562 3.851562 s -3.851562 -1.726562 -3.851562 -3.851562 v -24.296876 c 0 -2.125 1.722656 -3.851562 3.851562 -3.851562 z m 0 0" fill="#77767b"/>
        </g>
    </g>
    <g clip-path="url(#u)">
        <g clip-path="url(#v)">
            <path d="m 72 66 c 0 2.128906 -1.726562 3.851562 -3.851562 3.851562 h -24.296876 c -2.125 0 -3.851562 -1.722656 -3.851562 -3.851562 s 1.726562 -3.851562 3.851562 -3.851562 h 24.296876 c 2.125 0 3.851562 1.722656 3.851562 3.851562 z m 0 0" fill="#77767b"/>
        </g>
    </g>
    <path d="m 100 -0.125 c 15.464844 0 28 12.535156 28 28 c 0 15.460938 -12.535156 28 -28 28 s -28 -12.539062 -28 -28 c 0 -15.464844 12.535156 -28 28 -28 z m 0 0" fill="#3584e4"/>
    <path d="m 99.90625 45.335938 c -2.835938 0 -5.304688 -0.46875 -7.402344 -1.410157 c -2.097656 -0.941406 -3.722656 -2.234375 -4.878906 -3.886719 c -1.15625 -1.648437 -1.75 -3.539062 -1.78125 -5.664062 h 9.390625 c 0.046875 1 0.507813 1.824219 1.386719 2.472656 c 0.894531 0.632813 1.992187 0.949219 3.285156 0.949219 c 1.34375 0 2.398438 -0.371094 3.171875 -1.109375 c 0.785156 -0.742188 1.179687 -1.757812 1.179687 -3.054688 c 0 -1.140624 -0.464843 -2.113281 -1.390624 -2.914062 c -0.910157 -0.800781 -2.082032 -1.203125 -3.515626 -1.203125 h -4.53125 v -5.738281 l 6.984376 -5.6875 v -0.1875 h -14.203126 v -7.492188 h 25.121094 v 6.753906 l -9.023437 7.332032 c 2.097656 0.046875 3.925781 0.507812 5.484375 1.386718 c 1.574218 0.878907 2.789062 2.058594 3.65625 3.539063 c 0.878906 1.464844 1.316406 3.132813 1.316406 4.996094 c 0 2.269531 -0.632812 4.21875 -1.894531 5.855469 c -1.25 1.617187 -2.953125 2.867187 -5.113281 3.746093 c -2.144532 0.878907 -4.558594 1.316407 -7.242188 1.316407 z m 0 0" fill="#ffffff"/>
    <g mask="url(#W)">
        <g clip-path="url(#aa)">
            <g mask="url(#X)">
                <g clip-path="url(#Z)">
                    <path d="m 128 80.640625 v 47.359375 h -128 v -47.359375 z m 0 0" fill="url(#Y)"/>
                    <path d="m 13.308594 80.640625 l 47.355468 47.359375 h 21.214844 l -47.359375 -47.359375 z m 42.421875 0 l 47.363281 47.359375 h 21.214844 l -47.363282 -47.359375 z m 42.429687 0 l 29.839844 29.839844 v -21.210938 l -8.628906 -8.628906 z m -98.160156 7.90625 v 21.214844 l 18.238281 18.238281 h 21.214844 z m 0 0"/>
                </g>
            </g>
        </g>
    </g>
</svg>
