<?xml version="1.0" encoding="UTF-8"?>
<svg height="128px" viewBox="0 0 128 128" width="128px" xmlns="http://www.w3.org/2000/svg" xmlns:xlink="http://www.w3.org/1999/xlink">
    <filter id="a" height="100%" width="100%" x="0%" y="0%">
        <feColorMatrix color-interpolation-filters="sRGB" values="0 0 0 0 1 0 0 0 0 1 0 0 0 0 1 0 0 0 1 0"/>
    </filter>
    <clipPath id="b">
        <path d="m 12 12 h 104 v 104 h -104 z m 0 0"/>
    </clipPath>
    <clipPath id="c">
        <path d="m 108 12 h -88 c -4.417969 0 -8 3.582031 -8 8 v 88 c 0 4.417969 3.582031 8 8 8 h 88 c 4.417969 0 8 -3.582031 8 -8 v -88 c 0 -4.417969 -3.582031 -8 -8 -8 z m 0 0"/>
    </clipPath>
    <linearGradient id="d" gradientTransform="matrix(-1.238095 0 0 1.181818 -134.095184 -54.181808)" gradientUnits="userSpaceOnUse" x1="-121.230743" x2="-121.230743" y1="59.384613" y2="140.615387">
        <stop offset="0" stop-color="#d1d0d0"/>
        <stop offset="0.41413" stop-color="#c0bfbc"/>
        <stop offset="0.795924" stop-color="#c0bfbc"/>
        <stop offset="1" stop-color="#9a9996"/>
    </linearGradient>
    <mask id="e">
        <g filter="url(#a)">
            <rect fill-opacity="0.361567" height="153.6" width="153.6" x="-12.8" y="-12.8"/>
        </g>
    </mask>
    <linearGradient id="f" gradientUnits="userSpaceOnUse">
        <stop offset="0" stop-color="#deddda" stop-opacity="0"/>
        <stop offset="0.512791" stop-color="#deddda"/>
        <stop offset="1" stop-color="#deddda" stop-opacity="0"/>
    </linearGradient>
    <linearGradient id="g" gradientTransform="matrix(0.974399 0.224826 0.224826 -0.974399 -35.323494 282.032745)" x1="104.353554" x2="113.800751" xlink:href="#f" y1="186.717514" y2="198.061951"/>
    <clipPath id="h">
        <rect height="152" width="192"/>
    </clipPath>
    <clipPath id="i">
        <path d="m 85 12 h 31 v 26 h -31 z m 0 0"/>
    </clipPath>
    <clipPath id="j">
        <path d="m 108 12 h -88 c -4.417969 0 -8 3.582031 -8 8 v 88 c 0 4.417969 3.582031 8 8 8 h 88 c 4.417969 0 8 -3.582031 8 -8 v -88 c 0 -4.417969 -3.582031 -8 -8 -8 z m 0 0"/>
    </clipPath>
    <linearGradient id="k" x1="104.353554" x2="113.800751" xlink:href="#f" y1="14.717514" y2="26.061951"/>
    <clipPath id="l">
        <path d="m 12 12 h 30 v 20 h -30 z m 0 0"/>
    </clipPath>
    <clipPath id="m">
        <path d="m 108 12 h -88 c -4.417969 0 -8 3.582031 -8 8 v 88 c 0 4.417969 3.582031 8 8 8 h 88 c 4.417969 0 8 -3.582031 8 -8 v -88 c 0 -4.417969 -3.582031 -8 -8 -8 z m 0 0"/>
    </clipPath>
    <linearGradient id="n" gradientTransform="matrix(-1 0 0 1 126.460739 -178)" x1="104.353554" x2="113.800751" xlink:href="#f" y1="186.717514" y2="198.061951"/>
    <clipPath id="o">
        <path d="m 23 20 h 82 v 77 h -82 z m 0 0"/>
    </clipPath>
    <clipPath id="p">
        <path d="m 108 12 h -88 c -4.417969 0 -8 3.582031 -8 8 v 88 c 0 4.417969 3.582031 8 8 8 h 88 c 4.417969 0 8 -3.582031 8 -8 v -88 c 0 -4.417969 -3.582031 -8 -8 -8 z m 0 0"/>
    </clipPath>
    <radialGradient id="q" cx="22.940233" cy="33.657738" gradientTransform="matrix(5.897784 0.0743601 -0.0808026 6.408765 -77.776802 -117.414425)" gradientUnits="userSpaceOnUse" r="15.095438">
        <stop offset="0" stop-color="#f6f5f2"/>
        <stop offset="1" stop-color="#c8c7c4"/>
    </radialGradient>
    <clipPath id="r">
        <path d="m 12 12 h 104 v 104 h -104 z m 0 0"/>
    </clipPath>
    <clipPath id="s">
        <path d="m 108 12 h -88 c -4.417969 0 -8 3.582031 -8 8 v 88 c 0 4.417969 3.582031 8 8 8 h 88 c 4.417969 0 8 -3.582031 8 -8 v -88 c 0 -4.417969 -3.582031 -8 -8 -8 z m 0 0"/>
    </clipPath>
    <mask id="t">
        <g filter="url(#a)">
            <rect fill-opacity="0.361567" height="153.6" width="153.6" x="-12.8" y="-12.8"/>
        </g>
    </mask>
    <clipPath id="u">
        <path d="m 0 100 h 48 v 49 h -48 z m 0 0"/>
    </clipPath>
    <linearGradient id="v" gradientTransform="matrix(-0.98108 0.193605 -0.193605 -0.98108 170.946442 287.907951)" x1="104.353554" x2="113.800751" xlink:href="#f" y1="186.717514" y2="198.061951"/>
    <clipPath id="w">
        <rect height="152" width="192"/>
    </clipPath>
    <clipPath id="x">
        <path d="m 52 50 h 8 v 32 h -8 z m 0 0"/>
    </clipPath>
    <clipPath id="y">
        <path d="m 108 12 h -88 c -4.417969 0 -8 3.582031 -8 8 v 88 c 0 4.417969 3.582031 8 8 8 h 88 c 4.417969 0 8 -3.582031 8 -8 v -88 c 0 -4.417969 -3.582031 -8 -8 -8 z m 0 0"/>
    </clipPath>
    <clipPath id="z">
        <path d="m 40 62 h 32 v 8 h -32 z m 0 0"/>
    </clipPath>
    <clipPath id="A">
        <path d="m 108 12 h -88 c -4.417969 0 -8 3.582031 -8 8 v 88 c 0 4.417969 3.582031 8 8 8 h 88 c 4.417969 0 8 -3.582031 8 -8 v -88 c 0 -4.417969 -3.582031 -8 -8 -8 z m 0 0"/>
    </clipPath>
    <path d="m 108 14 h -88 c -4.417969 0 -8 3.582031 -8 8 v 88 c 0 4.417969 3.582031 8 8 8 h 88 c 4.417969 0 8 -3.582031 8 -8 v -88 c 0 -4.417969 -3.582031 -8 -8 -8 z m 0 0" fill="#77767b"/>
    <g clip-path="url(#b)">
        <g clip-path="url(#c)">
            <path d="m 116 12 h -104 v 104 h 104 z m 0 0" fill="url(#d)"/>
            <path d="m 108 12 h -88 c -4.417969 0 -8 3.582031 -8 8 v 88 c 0 4.417969 3.582031 8 8 8 h 88 c 4.417969 0 8 -3.582031 8 -8 v -88 c 0 -4.417969 -3.582031 -8 -8 -8 z m 0 0" fill="url(#d)"/>
            <g mask="url(#e)">
                <g clip-path="url(#h)" transform="matrix(1 0 0 1 -8 -16)">
                    <path d="m 110.679688 147.410156 l -16.28125 -48.144531 l 7.972656 -0.640625 l 43.078125 36.667969 z m 0 0" fill="url(#g)"/>
                </g>
            </g>
        </g>
    </g>
    <g clip-path="url(#i)">
        <g clip-path="url(#j)">
            <path d="m 112 -8 l -26.691406 43.253906 l 7.625 2.414063 l 50.21875 -26.042969 z m 0 0" fill="url(#k)"/>
        </g>
    </g>
    <g clip-path="url(#l)">
        <g clip-path="url(#m)">
            <path d="m 14.460938 -14 l 26.691406 43.253906 l -7.625 2.414063 l -50.21875 -26.042969 z m 0 0" fill="url(#n)"/>
        </g>
    </g>
    <g clip-path="url(#o)">
        <g clip-path="url(#p)">
            <path d="m 35.953125 20.644531 h 56.09375 c 6.738281 0 12.203125 5.464844 12.203125 12.207031 v 51.492188 c 0 6.738281 -5.464844 12.203125 -12.203125 12.203125 h -56.09375 c -6.738281 0 -12.203125 -5.464844 -12.203125 -12.203125 v -51.492188 c 0 -6.742187 5.464844 -12.207031 12.203125 -12.207031 z m 0 0" fill="url(#q)"/>
        </g>
    </g>
    <g clip-path="url(#r)">
        <g clip-path="url(#s)">
            <g mask="url(#t)">
                <g clip-path="url(#w)" transform="matrix(1 0 0 1 -8 -16)">
                    <g clip-path="url(#u)">
                        <path d="m 29.3125 148.695312 l 17.8125 -47.601562 l -7.949219 -0.894531 l -44.222656 35.273437 z m 0 0" fill="url(#v)"/>
                    </g>
                </g>
            </g>
        </g>
    </g>
    <g clip-path="url(#x)">
        <g clip-path="url(#y)">
            <path d="m 56 50 c 2.128906 0 3.851562 1.726562 3.851562 3.851562 v 24.296876 c 0 2.125 -1.722656 3.851562 -3.851562 3.851562 s -3.851562 -1.726562 -3.851562 -3.851562 v -24.296876 c 0 -2.125 1.722656 -3.851562 3.851562 -3.851562 z m 0 0" fill="#77767b"/>
        </g>
    </g>
    <g clip-path="url(#z)">
        <g clip-path="url(#A)">
            <path d="m 72 66 c 0 2.128906 -1.726562 3.851562 -3.851562 3.851562 h -24.296876 c -2.125 0 -3.851562 -1.722656 -3.851562 -3.851562 s 1.726562 -3.851562 3.851562 -3.851562 h 24.296876 c 2.125 0 3.851562 1.722656 3.851562 3.851562 z m 0 0" fill="#77767b"/>
        </g>
    </g>
    <path d="m 100 -0.125 c 15.464844 0 28 12.535156 28 28 c 0 15.460938 -12.535156 28 -28 28 s -28 -12.539062 -28 -28 c 0 -15.464844 12.535156 -28 28 -28 z m 0 0" fill="#3584e4"/>
    <path d="m 99.90625 45.335938 c -2.835938 0 -5.304688 -0.46875 -7.402344 -1.410157 c -2.097656 -0.941406 -3.722656 -2.234375 -4.878906 -3.886719 c -1.15625 -1.648437 -1.75 -3.539062 -1.78125 -5.664062 h 9.390625 c 0.046875 1 0.507813 1.824219 1.386719 2.472656 c 0.894531 0.632813 1.992187 0.949219 3.285156 0.949219 c 1.34375 0 2.398438 -0.371094 3.171875 -1.109375 c 0.785156 -0.742188 1.179687 -1.757812 1.179687 -3.054688 c 0 -1.140624 -0.464843 -2.113281 -1.390624 -2.914062 c -0.910157 -0.800781 -2.082032 -1.203125 -3.515626 -1.203125 h -4.53125 v -5.738281 l 6.984376 -5.6875 v -0.1875 h -14.203126 v -7.492188 h 25.121094 v 6.753906 l -9.023437 7.332032 c 2.097656 0.046875 3.925781 0.507812 5.484375 1.386718 c 1.574218 0.878907 2.789062 2.058594 3.65625 3.539063 c 0.878906 1.464844 1.316406 3.132813 1.316406 4.996094 c 0 2.269531 -0.632812 4.21875 -1.894531 5.855469 c -1.25 1.617187 -2.953125 2.867187 -5.113281 3.746093 c -2.144532 0.878907 -4.558594 1.316407 -7.242188 1.316407 z m 0 0" fill="#ffffff"/>
</svg>
